<?xml version="1.0" encoding="UTF-8" standalone="no"?>
<!-- Generator: Adobe Illustrator 17.0.0, SVG Export Plug-In . SVG Version: 6.00 Build 0)  -->

<svg
   xmlns:dc="http://purl.org/dc/elements/1.1/"
   xmlns:cc="http://creativecommons.org/ns#"
   xmlns:rdf="http://www.w3.org/1999/02/22-rdf-syntax-ns#"
   xmlns:svg="http://www.w3.org/2000/svg"
   xmlns="http://www.w3.org/2000/svg"
   xmlns:sodipodi="http://sodipodi.sourceforge.net/DTD/sodipodi-0.dtd"
   xmlns:inkscape="http://www.inkscape.org/namespaces/inkscape"
   version="1.1"
   x="0px"
   y="0px"
   width="135.374px"
   height="20px"
   viewBox="0 0 135.374 20"
   enable-background="new 0 0 135.374 20"
   xml:space="preserve"
   id="svg30"
   sodipodi:docname="stuhl_logo.svg"
   inkscape:version="0.92.2 (5c3e80d, 2017-08-06)"><metadata
     id="metadata36"><rdf:RDF><cc:Work
         rdf:about=""><dc:format>image/svg+xml</dc:format><dc:type
           rdf:resource="http://purl.org/dc/dcmitype/StillImage" /><dc:title></dc:title></cc:Work></rdf:RDF></metadata><defs
     id="defs34"><clipPath
       clipPathUnits="userSpaceOnUse"
       id="clipPath4538"><rect
         style="opacity:1;fill:#ea2e49;fill-opacity:0.98333333;stroke:#ea2e49;stroke-width:3.02362204;stroke-linecap:round;stroke-miterlimit:4;stroke-dasharray:none;stroke-opacity:1"
         id="rect4540"
         width="125.67671"
         height="46.740879"
         x="-4.6546931"
         y="-9.285778" /></clipPath><pattern
       patternUnits="userSpaceOnUse"
       width="61.990215"
       height="18.672607"
       patternTransform="matrix(1.5852098,0,0,1.5852098,26.059531,12.504992)"
       id="pattern81"><path
         d="m 56.035168,0 h 2.775657 v 14.610053 q 0,0.731764 0.378499,1.16073 0.378499,0.403732 1.059797,0.403732 0.277565,0 0.630831,-0.100933 0.378499,-0.100933 0.706531,-0.227099 l 0.403732,2.170059 q -0.605598,0.277566 -1.438295,0.428966 -0.832698,0.176632 -1.488762,0.176632 -1.438296,0 -2.24576,-0.782231 -0.78223,-0.78223 -0.78223,-2.220526 z m -3.271649,18.420274 h -2.775658 v -7.393343 q 0,-1.8167939 -0.656065,-2.6747245 -0.630831,-0.8831638 -1.842027,-0.8831638 -0.580365,0 -1.160729,0.2270993 -0.580365,0.2270993 -1.110263,0.6560645 -0.504665,0.4037321 -0.908397,0.9840969 -0.403732,0.5551315 -0.605598,1.2364296 v 7.847541 H 40.929124 V 0 h 2.775658 v 7.8727747 q 0.756997,-1.3625956 2.043893,-2.1195932 1.312129,-0.7569975 2.851357,-0.7569975 1.236429,0 2.01866,0.4541985 0.807464,0.4289653 1.286896,1.1607296 0.479432,0.7317643 0.656065,1.7158612 0.201866,0.9588636 0.201866,2.0438937 z m -23.148355,0.252333 q -2.069126,0 -3.128923,-1.337363 -1.059797,-1.362595 -1.059797,-4.03732 V 5.2232832 h 2.775658 v 7.5195088 q 0,3.557889 2.523325,3.557889 1.185963,0 2.24576,-0.731764 1.059797,-0.731765 1.640161,-2.119593 V 5.2232832 h 2.775658 v 9.9166678 q 0,0.479432 0.1514,0.681298 0.176632,0.201866 0.605598,0.2271 v 2.371925 q -0.428966,0.0757 -0.706531,0.100933 -0.277566,0.02523 -0.529899,0.02523 -0.756997,0 -1.286896,-0.403733 -0.529898,-0.428965 -0.555131,-1.085029 l -0.05047,-1.31213 q -0.883163,1.438296 -2.296226,2.195293 -1.413062,0.731765 -3.10369,0.731765 z m -5.985012,-0.933631 q -0.529898,0.252333 -1.463528,0.580365 -0.933631,0.302799 -1.993427,0.302799 -0.656065,0 -1.23643,-0.176632 -0.580364,-0.176633 -1.034563,-0.529899 -0.428965,-0.353265 -0.681298,-0.908397 -0.252332,-0.580365 -0.252332,-1.387829 V 7.3681097 H 15.227479 V 5.2232832 h 1.741095 V 0.88316383 h 2.775657 V 5.2232832 h 2.876591 v 2.1448265 h -2.876591 v 7.3681093 q 0.05047,0.706531 0.428966,1.034564 0.403732,0.302799 0.984097,0.302799 0.580364,0 1.110263,-0.201866 0.529898,-0.201866 0.782231,-0.328033 z M 11.960562,4.7186182 Q 11.708229,4.4410524 11.228797,4.1382534 10.749366,3.8102211 10.093301,3.5326553 9.4624697,3.2550896 8.6802388,3.0784568 7.9232413,2.901824 7.1157772,2.901824 q -1.7915609,0 -2.6494915,0.6560646 -0.8326974,0.6560646 -0.8326974,1.8167942 0,0.6560645 0.2523326,1.0850298 0.2775657,0.4037321 0.8326973,0.7317643 0.5551316,0.3027991 1.3878289,0.5551316 0.8326973,0.2270993 1.9429604,0.504665 1.3625956,0.3280323 2.4476255,0.7317644 1.110263,0.403732 1.867261,0.9840968 0.756997,0.5803653 1.160729,1.4382953 0.428966,0.832697 0.428966,2.043894 0,1.362595 -0.529899,2.346692 -0.504665,0.984097 -1.413062,1.614928 -0.883164,0.605598 -2.0691266,0.908397 -1.1859628,0.277566 -2.5485584,0.277566 -2.0438935,0 -3.9616207,-0.605598 Q 1.5392284,17.360478 0,16.174515 l 1.2868959,-2.422392 q 0.3280323,0.328032 0.9336303,0.731764 0.6308313,0.403732 1.4382954,0.756997 0.8326973,0.328033 1.7915609,0.580365 0.9588636,0.2271 1.993427,0.2271 1.6653946,0 2.5737915,-0.580365 0.908397,-0.580365 0.908397,-1.715861 0,-0.681298 -0.353265,-1.135497 Q 10.2447,12.162428 9.6138692,11.834395 8.9830379,11.48113 8.0746408,11.203564 7.1662437,10.925998 6.0055141,10.623199 4.6681517,10.269934 3.6588216,9.8914349 2.6747248,9.4877029 2.0186602,8.9325713 1.3625956,8.3774398 1.0093301,7.6456755 0.68129781,6.8886779 0.68129781,5.8288813 q 0,-1.3121291 0.50466509,-2.3214592 0.504665,-1.0345634 1.3625956,-1.7158612 0.8831638,-0.706531 2.0691267,-1.05979658 1.1859629,-0.35326553 2.5737917,-0.35326553 1.8167942,0 3.3560231,0.5803648 1.539228,0.58036481 2.699958,1.43829541 z"
         style="font-style:normal;font-variant:normal;font-weight:600;font-stretch:normal;font-family:Raleway;-inkscape-font-specification:'Raleway Semi-Bold';stroke-width:0.6308313"
         id="path35"
         inkscape:connector-curvature="0" /></pattern></defs><sodipodi:namedview
     pagecolor="#ffffff"
     bordercolor="#666666"
     borderopacity="1"
     objecttolerance="10"
     gridtolerance="10"
     guidetolerance="10"
     inkscape:pageopacity="0"
     inkscape:pageshadow="2"
     inkscape:window-width="1366"
     inkscape:window-height="705"
     id="namedview32"
     showgrid="false"
     inkscape:zoom="7.2918073"
     inkscape:cx="62.24631"
     inkscape:cy="-0.838477"
     inkscape:window-x="-8"
     inkscape:window-y="-8"
     inkscape:window-maximized="1"
     inkscape:current-layer="svg30" /><path
     style="fill:#ffffff"
     d="m 122.00602,2.836 9.187,16.794 V 2.836 Z"
     id="polygon8"
     inkscape:connector-curvature="0" /><path
     style="fill:#ffffff"
     d="M 124.637,0.375 135.373,20 V 0.375 Z"
     id="polygon10" /><g
     aria-label="multiBit"
     style="font-style:normal;font-weight:normal;font-size:40px;line-height:25px;font-family:sans-serif;letter-spacing:0px;word-spacing:0px;fill:#ffffff;fill-opacity:1;stroke:none"
     id="text4515"
     clip-path="url(#clipPath4538)"><g
       id="g3791"
       transform="translate(0,-20)"><path
         inkscape:connector-curvature="0"
         id="path3776"
         d="m 38.613216,39.223467 c -1.879371,-0.266204 -4.144507,-1.124397 -5.194962,-1.96822 l -0.398889,-0.320425 0.593804,-1.099393 0.593805,-1.099393 0.749704,0.525171 c 0.867804,0.607897 2.465909,1.255411 3.688485,1.494485 1.239226,0.24233 3.260663,0.11971 3.948955,-0.239541 0.915845,-0.478024 1.210027,-0.893281 1.267494,-1.789149 0.10746,-1.67524 -0.721074,-2.210712 -5.450271,-3.522455 -3.057801,-0.848146 -4.367472,-1.895448 -4.666295,-3.731491 -0.262547,-1.613151 0.266872,-3.295052 1.391064,-4.419244 2.22094,-2.22094 6.896044,-2.350378 10.178292,-0.281802 0.746535,0.470489 0.746127,0.417208 0.01325,1.729905 l -0.472937,0.847106 -0.682654,-0.459392 c -2.187347,-1.471975 -5.63351,-1.689327 -6.971855,-0.439719 -0.509734,0.475936 -0.708828,0.982459 -0.708828,1.803357 0,0.679878 0.05212,0.818379 0.49065,1.303777 0.558027,0.61767 1.264187,0.92035 3.379697,1.448633 3.068631,0.766296 4.398076,1.346817 5.283077,2.306929 0.857832,0.930638 1.042135,1.450997 1.052126,2.970569 0.0074,1.129363 -0.03896,1.403261 -0.348339,2.057103 -0.61812,1.306314 -1.700514,2.154046 -3.390524,2.655464 -0.893889,0.265213 -3.219605,0.38711 -4.344849,0.227725 z"
         style="fill:#ffffff;stroke:#ffffff;stroke-width:0.13714021" /><path
         inkscape:connector-curvature="0"
         id="path3778"
         d="M 51.916779,39.175378 C 51.08596,38.901244 50.633067,38.552516 50.300354,37.930727 50.010685,37.38938 49.998132,37.199551 49.957112,32.740347 l -0.04258,-4.628482 h -0.814549 -0.814549 v -0.959981 -0.959982 h 0.822842 0.822841 v -2.194243 -2.194243 h 1.299349 1.29935 l 0.03777,2.159958 0.03777,2.159958 1.405687,0.03908 1.405687,0.03908 v 0.955183 0.955184 H 53.970904 52.52508 l 0.04014,4.057682 0.04014,4.057681 0.384783,0.330805 c 0.305372,0.262535 0.539779,0.330806 1.135811,0.330806 0.413066,0 0.974518,-0.09338 1.247672,-0.207511 0.273153,-0.114131 0.50905,-0.191272 0.524214,-0.171425 0.154179,0.201781 0.49461,1.924337 0.397882,2.01325 -0.06859,0.06305 -0.488986,0.248343 -0.934205,0.41176 -1.01352,0.372014 -2.691126,0.489122 -3.444731,0.240465 z"
         style="fill:#ffffff;stroke:#ffffff;stroke-width:0.13714021" /><path
         inkscape:connector-curvature="0"
         id="path3780"
         d="M 61.006436,39.162221 C 60.252682,38.893204 59.849111,38.592745 59.38972,37.958573 58.568817,36.82535 58.522581,36.481644 58.46637,31.094665 l -0.05116,-4.902763 h 1.303637 1.303638 l 0.04278,4.495461 0.04278,4.495461 0.346559,0.681582 c 0.871678,1.714345 3.374198,1.728465 5.074033,0.02863 1.097272,-1.097272 1.093568,-1.078137 1.093568,-5.650034 v -4.0511 h 1.302832 1.302832 v 5.132963 c 0,4.483475 0.02727,5.16023 0.215506,5.348468 0.118529,0.118528 0.272811,0.215506 0.342851,0.215506 0.07004,0 0.127344,0.531306 0.127344,1.180681 v 1.180681 l -1.028075,-0.05192 c -0.899427,-0.04542 -1.074758,-0.0986 -1.401123,-0.424962 -0.320035,-0.320036 -0.380789,-0.510063 -0.427529,-1.33725 l -0.05448,-0.964203 -0.791604,0.863896 c -1.283435,1.400643 -2.722554,2.022233 -4.66274,2.013948 -0.565703,-0.0024 -1.259415,-0.08679 -1.541582,-0.187494 z"
         style="fill:#ffffff;stroke:#ffffff;stroke-width:0.13714021" /><path
         inkscape:connector-curvature="0"
         id="path3782"
         d="m 73.930656,29.963258 v -9.119824 h 1.302832 1.302832 v 3.908496 c 0,2.149673 0.05128,3.908496 0.113966,3.908496 0.06268,0 0.200033,-0.160817 0.305226,-0.357372 0.33313,-0.622458 1.60473,-1.66683 2.426926,-1.993247 0.620481,-0.246335 1.06519,-0.314021 2.09093,-0.318247 1.19612,-0.0049 1.363746,0.02833 2.046528,0.406053 0.851701,0.47117 1.420695,1.179584 1.752891,2.1824 0.194828,0.588139 0.239094,1.466512 0.282229,5.600307 l 0.05116,4.902762 h -1.301927 -1.301926 l -0.04449,-4.354201 -0.04449,-4.354202 -0.377543,-0.754271 c -0.498769,-0.996461 -0.912934,-1.280314 -1.965913,-1.347363 -1.416303,-0.09018 -2.783565,0.749704 -3.633955,2.23228 l -0.397035,0.692195 -0.0013,3.942781 -0.0013,3.942781 H 75.233462 73.93063 Z"
         style="fill:#ffffff;stroke:#ffffff;stroke-width:0.13714021" /><path
         inkscape:connector-curvature="0"
         id="path3784"
         d="m 90.730332,39.160647 c -0.689617,-0.255519 -1.375757,-0.989709 -1.566326,-1.676013 -0.09608,-0.346026 -0.14666,-3.296282 -0.147162,-8.584212 l -7.65e-4,-8.056988 h 1.302832 1.302832 v 7.487701 c 0,8.24854 -0.0032,8.215539 0.834736,8.562631 0.352429,0.145981 1.151908,0.135559 1.758892,-0.02293 0.190858,-0.04983 0.25976,0.152939 0.481465,1.416908 l 0.08902,0.507494 -0.724929,0.217436 c -1.07775,0.323261 -2.666953,0.393867 -3.330592,0.147971 z"
         style="fill:#ffffff;stroke:#ffffff;stroke-width:0.13714021" /></g></g></svg>