<?xml version="1.0" encoding="UTF-8" standalone="no"?>
<!-- Generator: Adobe Illustrator 17.0.0, SVG Export Plug-In . SVG Version: 6.00 Build 0)  -->

<svg
   xmlns:dc="http://purl.org/dc/elements/1.1/"
   xmlns:cc="http://creativecommons.org/ns#"
   xmlns:rdf="http://www.w3.org/1999/02/22-rdf-syntax-ns#"
   xmlns:svg="http://www.w3.org/2000/svg"
   xmlns="http://www.w3.org/2000/svg"
   xmlns:sodipodi="http://sodipodi.sourceforge.net/DTD/sodipodi-0.dtd"
   xmlns:inkscape="http://www.inkscape.org/namespaces/inkscape"
   version="1.1"
   x="0px"
   y="0px"
   width="135.374px"
   height="20px"
   viewBox="0 0 135.374 20"
   enable-background="new 0 0 135.374 20"
   xml:space="preserve"
   id="svg30"
   sodipodi:docname="stuhl_logo.svg"
   inkscape:version="0.92.2 (5c3e80d, 2017-08-06)"><metadata
     id="metadata36"><rdf:RDF><cc:Work
         rdf:about=""><dc:format>image/svg+xml</dc:format><dc:type
           rdf:resource="http://purl.org/dc/dcmitype/StillImage" /><dc:title /></cc:Work></rdf:RDF></metadata><defs
     id="defs34"><clipPath
       clipPathUnits="userSpaceOnUse"
       id="clipPath4538"><rect
         style="opacity:1;fill:#ea2e49;fill-opacity:0.98333333;stroke:#ea2e49;stroke-width:3.02362204;stroke-linecap:round;stroke-miterlimit:4;stroke-dasharray:none;stroke-opacity:1"
         id="rect4540"
         width="125.67671"
         height="46.740879"
         x="-4.6546931"
         y="-9.285778" /></clipPath><pattern
       patternUnits="userSpaceOnUse"
       width="61.990215"
       height="18.672607"
       patternTransform="matrix(1.5852098,0,0,1.5852098,26.059531,12.504992)"
       id="pattern81"><path
         d="m 56.035168,0 h 2.775657 v 14.610053 q 0,0.731764 0.378499,1.16073 0.378499,0.403732 1.059797,0.403732 0.277565,0 0.630831,-0.100933 0.378499,-0.100933 0.706531,-0.227099 l 0.403732,2.170059 q -0.605598,0.277566 -1.438295,0.428966 -0.832698,0.176632 -1.488762,0.176632 -1.438296,0 -2.24576,-0.782231 -0.78223,-0.78223 -0.78223,-2.220526 z m -3.271649,18.420274 h -2.775658 v -7.393343 q 0,-1.8167939 -0.656065,-2.6747245 -0.630831,-0.8831638 -1.842027,-0.8831638 -0.580365,0 -1.160729,0.2270993 -0.580365,0.2270993 -1.110263,0.6560645 -0.504665,0.4037321 -0.908397,0.9840969 -0.403732,0.5551315 -0.605598,1.2364296 v 7.847541 H 40.929124 V 0 h 2.775658 v 7.8727747 q 0.756997,-1.3625956 2.043893,-2.1195932 1.312129,-0.7569975 2.851357,-0.7569975 1.236429,0 2.01866,0.4541985 0.807464,0.4289653 1.286896,1.1607296 0.479432,0.7317643 0.656065,1.7158612 0.201866,0.9588636 0.201866,2.0438937 z m -23.148355,0.252333 q -2.069126,0 -3.128923,-1.337363 -1.059797,-1.362595 -1.059797,-4.03732 V 5.2232832 h 2.775658 v 7.5195088 q 0,3.557889 2.523325,3.557889 1.185963,0 2.24576,-0.731764 1.059797,-0.731765 1.640161,-2.119593 V 5.2232832 h 2.775658 v 9.9166678 q 0,0.479432 0.1514,0.681298 0.176632,0.201866 0.605598,0.2271 v 2.371925 q -0.428966,0.0757 -0.706531,0.100933 -0.277566,0.02523 -0.529899,0.02523 -0.756997,0 -1.286896,-0.403733 -0.529898,-0.428965 -0.555131,-1.085029 l -0.05047,-1.31213 q -0.883163,1.438296 -2.296226,2.195293 -1.413062,0.731765 -3.10369,0.731765 z m -5.985012,-0.933631 q -0.529898,0.252333 -1.463528,0.580365 -0.933631,0.302799 -1.993427,0.302799 -0.656065,0 -1.23643,-0.176632 -0.580364,-0.176633 -1.034563,-0.529899 -0.428965,-0.353265 -0.681298,-0.908397 -0.252332,-0.580365 -0.252332,-1.387829 V 7.3681097 H 15.227479 V 5.2232832 h 1.741095 V 0.88316383 h 2.775657 V 5.2232832 h 2.876591 v 2.1448265 h -2.876591 v 7.3681093 q 0.05047,0.706531 0.428966,1.034564 0.403732,0.302799 0.984097,0.302799 0.580364,0 1.110263,-0.201866 0.529898,-0.201866 0.782231,-0.328033 z M 11.960562,4.7186182 Q 11.708229,4.4410524 11.228797,4.1382534 10.749366,3.8102211 10.093301,3.5326553 9.4624697,3.2550896 8.6802388,3.0784568 7.9232413,2.901824 7.1157772,2.901824 q -1.7915609,0 -2.6494915,0.6560646 -0.8326974,0.6560646 -0.8326974,1.8167942 0,0.6560645 0.2523326,1.0850298 0.2775657,0.4037321 0.8326973,0.7317643 0.5551316,0.3027991 1.3878289,0.5551316 0.8326973,0.2270993 1.9429604,0.504665 1.3625956,0.3280323 2.4476255,0.7317644 1.110263,0.403732 1.867261,0.9840968 0.756997,0.5803653 1.160729,1.4382953 0.428966,0.832697 0.428966,2.043894 0,1.362595 -0.529899,2.346692 -0.504665,0.984097 -1.413062,1.614928 -0.883164,0.605598 -2.0691266,0.908397 -1.1859628,0.277566 -2.5485584,0.277566 -2.0438935,0 -3.9616207,-0.605598 Q 1.5392284,17.360478 0,16.174515 l 1.2868959,-2.422392 q 0.3280323,0.328032 0.9336303,0.731764 0.6308313,0.403732 1.4382954,0.756997 0.8326973,0.328033 1.7915609,0.580365 0.9588636,0.2271 1.993427,0.2271 1.6653946,0 2.5737915,-0.580365 0.908397,-0.580365 0.908397,-1.715861 0,-0.681298 -0.353265,-1.135497 Q 10.2447,12.162428 9.6138692,11.834395 8.9830379,11.48113 8.0746408,11.203564 7.1662437,10.925998 6.0055141,10.623199 4.6681517,10.269934 3.6588216,9.8914349 2.6747248,9.4877029 2.0186602,8.9325713 1.3625956,8.3774398 1.0093301,7.6456755 0.68129781,6.8886779 0.68129781,5.8288813 q 0,-1.3121291 0.50466509,-2.3214592 0.504665,-1.0345634 1.3625956,-1.7158612 0.8831638,-0.706531 2.0691267,-1.05979658 1.1859629,-0.35326553 2.5737917,-0.35326553 1.8167942,0 3.3560231,0.5803648 1.539228,0.58036481 2.699958,1.43829541 z"
         style="font-style:normal;font-variant:normal;font-weight:600;font-stretch:normal;font-family:Raleway;-inkscape-font-specification:'Raleway Semi-Bold';stroke-width:0.6308313"
         id="path35"
         inkscape:connector-curvature="0" /></pattern></defs><sodipodi:namedview
     pagecolor="#ffffff"
     bordercolor="#666666"
     borderopacity="1"
     objecttolerance="10"
     gridtolerance="10"
     guidetolerance="10"
     inkscape:pageopacity="0"
     inkscape:pageshadow="2"
     inkscape:window-width="1366"
     inkscape:window-height="705"
     id="namedview32"
     showgrid="false"
     inkscape:zoom="7.2918073"
     inkscape:cx="80.348818"
     inkscape:cy="-0.838477"
     inkscape:window-x="-8"
     inkscape:window-y="-8"
     inkscape:window-maximized="1"
     inkscape:current-layer="svg30" /><path
     style="fill:#ffffff"
     d="m 122.00602,2.836 9.187,16.794 V 2.836 Z"
     id="polygon8"
     inkscape:connector-curvature="0" /><path
     style="fill:#ffffff"
     d="M 124.637,0.375 135.373,20 V 0.375 Z"
     id="polygon10" /><g
     aria-label="multiBit"
     style="font-style:normal;font-weight:normal;font-size:40px;line-height:25px;font-family:sans-serif;letter-spacing:0px;word-spacing:0px;fill:#ffffff;fill-opacity:1;stroke:none"
     id="text4515"
     clip-path="url(#clipPath4538)"><g
       id="g3791"
       transform="translate(0,-20)"><g
         aria-label="mB"
         style="font-style:normal;font-weight:normal;font-size:40px;line-height:1.25;font-family:sans-serif;letter-spacing:0px;word-spacing:0px;fill:#ffffff;fill-opacity:1;stroke:none"
         id="text828"
         transform="translate(-29.211328,-10.799907)"><path
           d="m 91.126261,36.403605 c -2.586667,0 -4.48,1.04 -5.386667,3.413333 -0.666666,-2.16 -2.399999,-3.413333 -4.933333,-3.413333 -2.346666,0 -4.16,0.853333 -5.146666,2.853333 v -2.746667 h -3.04 v 14.186667 h 3.04 v -7.013334 c 0,-2.48 1.493333,-4.346666 3.946666,-4.426666 2.08,0 3.333334,1.306666 3.333334,3.466666 v 7.973334 h 3.066666 v -7.013334 c 0,-2.48 1.466667,-4.346666 3.893333,-4.426666 2.08,0 3.36,1.306666 3.36,3.466666 v 7.973334 h 3.066667 v -8.826667 c 0,-3.386666 -1.946667,-5.466666 -5.2,-5.466666 z"
           style="font-style:normal;font-variant:normal;font-weight:normal;font-stretch:normal;font-size:26.66666603px;font-family:Montserrat;-inkscape-font-specification:Montserrat;fill:#ffffff"
           id="path830"
           inkscape:connector-curvature="0" /><path
           d="m 108.72543,32.030271 h -8.10667 v 18.666667 h 8.29333 c 4.21334,0 6.8,-1.92 6.8,-5.12 0,-2.506667 -1.49333,-4.293334 -4,-4.72 2.02667,-0.506667 3.28,-2.08 3.28,-4.16 0,-2.906667 -2.4,-4.666667 -6.26666,-4.666667 z m -0.16,7.733333 h -4.8 v -4.906666 h 4.8 c 2,-0.02667 3.2,0.853333 3.2,2.4 0,1.6 -1.2,2.506666 -3.2,2.506666 z m 0,8.106667 h -4.8 v -5.333333 h 4.8 c 2.45333,-0.02667 3.92,0.986666 3.92,2.64 0,1.733333 -1.46667,2.72 -3.92,2.693333 z"
           style="font-style:normal;font-variant:normal;font-weight:normal;font-stretch:normal;font-size:26.66666603px;font-family:Montserrat;-inkscape-font-specification:Montserrat;fill:#ffffff"
           id="path832"
           inkscape:connector-curvature="0" /></g></g></g></svg>